<svg xmlns="http://www.w3.org/2000/svg" width="445" height="455" viewBox="0 0 445 455"><g transform="translate(-16.412 -17.193)"><path d="M234.241,156.118c-67.471-.758-124.731-6.089-180.6-21.813-10.455-2.944-20.571-7.6-30.268-12.582-8.061-4.146-7.94-10.744-.129-15,9.974-5.434,20.344-10.617,31.153-13.942,22.239-6.847,44.741-12.994,67.432-18.124,7.564-1.711,16.328-.668,24.038,1.2,54.071,13.126,107.9,13.918,161.684-1.4,4.056-1.157,8.8-2.543,12.608-1.526,31.375,8.357,62.771,16.735,93.763,26.381,7.229,2.25,12.941,9.368,19.351,14.245-6.7,5.107-12.732,13.157-20.2,14.832-40.21,9.015-80.613,17.456-121.283,24.018-22.03,3.554-44.731,2.973-57.545,3.707" transform="translate(1.543 90.958)" fill="#919191"/><path d="M62.349,143.416c9.165-37.046,17.158-73.8,27.6-109.846,5.888-20.311,15.148-21.174,29.5-5.664,2.685,2.9,5.112,6.052,7.884,8.859,11.753,11.893,21.414,12.585,34.72,2.1,6.2-4.885,11.679-10.681,17.844-15.616,11.441-9.165,18.309-8.159,22.771,5.661,7.531,23.321,13.506,47.175,19.41,70.984,3.57,14.4,5.772,29.14,8.539,43.478-30.255,14.75-114.544,15.175-168.269.04" transform="translate(75.471 0)" fill="#919191"/><path d="M208.071,109.7c14-1.946,26.112-3.813,38.276-5.178a13.661,13.661,0,0,1,8.587,1.862c25.264,17.329,50.346,34.926,77.493,53.855-43.367,8.45-85.261,12.962-126.2,32.916,16.564,8.114,30.785,15.074,48.194,23.6-68.75,16-122.988,48.733-158.344,112.072-3.108-21.192.185-38.477,6.039-55.439,14.805-42.91,42.234-77.2,77.038-104.864,19.574-15.558,30.682-32.811,28.918-58.824" transform="translate(128.985 143.367)" fill="#919191"/><path d="M218.171,281.389c-43.79-20.435-86.132-40.2-128.921-60.171,12.08-10.522,24.82-21.62,40.856-35.586-40-9.564-76.444-18.272-113.694-27.176,19.9-17.147,39.644-35.81,61.373-51.772,5.659-4.153,17.512.465,26.521.457,10.364-.013,15.89,4.2,20.445,14.227,20.828,45.854,50.9,85.087,90.333,116.519,9.683,7.721,13.651,14.615,8.45,26.209-2.479,5.526-3.654,11.631-5.363,17.292" transform="translate(0 144.202)" fill="#919191"/><path d="M236.438,107.365c1.922,16.3-3.47,26.88-16.912,33.241-17.781,8.413-37.363,6-49.01-6.1-1.516-1.574-2.746-3.422-4.122-5.13-10.937-13.6-21.486-13.643-32.275-.137-14.842,18.578-39.4,22.072-58.748,8.043-10.118-7.335-14.029-17.4-11.853-29.951,57.673,6.53,114.834,7.66,172.919.037" transform="translate(76.439 147.999)" fill="#919191"/></g></svg>